<?xml version="1.0" encoding="UTF-8"?>
<svg id="Layer_2" data-name="Layer 2" xmlns="http://www.w3.org/2000/svg" viewBox="0 0 300 300">
  <defs>
    <style>
      .cls-1 {
        fill: #f9faf7;
      }
    </style>
  </defs>
  <g id="Layer_1-2" data-name="Layer 1">
    <g id="_Radial_Repeat_" data-name="&amp;lt;Radial Repeat&amp;gt;">
      <path class="cls-1" d="M298.63,129.88h-82.21l73.38-30.2c.78-.31,1.15-1.2.83-1.98l-3.91-9.52c-.32-.78-1.21-1.14-1.99-.82l-74.14,30.5,58.73-58.73c.54-.53.54-1.4,0-1.94l-26.52-26.52c-.54-.54-1.4-.54-1.94,0l-58.13,58.13,30.54-73.25c.32-.78-.05-1.66-.82-1.98l-9.49-3.96c-.78-.32-1.66.05-1.99.82l-30.85,74.01V1.37c0-.76-.61-1.37-1.37-1.37h-37.51c-.76,0-1.37.61-1.37,1.37v82.21L99.68,10.2c-.31-.78-1.2-1.15-1.98-.83l-9.52,3.91c-.78.32-1.14,1.21-.82,1.98l30.5,74.14L59.13,30.67c-.53-.54-1.4-.54-1.94,0l-26.52,26.52c-.54.54-.54,1.4,0,1.94l58.13,58.13L15.56,86.73c-.78-.32-1.66.05-1.99.82l-3.96,9.49c-.32.78.05,1.66.82,1.99l74,30.85H1.37c-.76,0-1.37.6-1.37,1.37v37.51c0,.76.61,1.37,1.37,1.37h82.21s-73.38,30.2-73.38,30.2c-.78.32-1.15,1.2-.83,1.98l3.91,9.51c.32.78,1.21,1.14,1.99.82l74.14-30.5-58.73,58.73c-.54.53-.54,1.4,0,1.94l26.52,26.52c.54.54,1.4.54,1.94,0l58.13-58.13-30.54,73.25c-.32.78.05,1.66.82,1.98l9.49,3.96c.78.32,1.66-.05,1.99-.82l30.85-74v83.07c0,.76.6,1.37,1.37,1.37h37.51c.76,0,1.37-.61,1.37-1.37v-82.21s30.2,73.38,30.2,73.38c.32.78,1.2,1.15,1.99.83l9.51-3.91c.78-.32,1.14-1.21.82-1.99l-30.5-74.14,58.73,58.73c.53.54,1.4.54,1.94,0l26.52-26.52c.54-.54.54-1.4,0-1.94l-58.13-58.13,73.25,30.54c.78.32,1.66-.05,1.99-.82l3.96-9.49c.32-.78-.05-1.66-.82-1.98l-74-30.85h83.07c.76,0,1.37-.6,1.37-1.37v-37.51c0-.76-.61-1.37-1.37-1.37ZM203.65,171.6c0,.4-.16.78-.44,1.07l-1.04,1.04-3.71,3.71-21.23,21.23-3.52,3.52-1.04,1.04c-.28.28-.67.44-1.07.44h-43.2c-.4,0-.78-.16-1.07-.44l-1.04-1.04-3.71-3.71-21.23-21.23-4.56-4.56c-.28-.28-.44-.67-.44-1.07v-43.2c0-.4.16-.78.44-1.07l30.54-30.54c.28-.28.67-.44,1.07-.44h43.2c.4,0,.78.16,1.07.44l4.75,4.75,21.23,21.23,3.52,3.52,1.04,1.04c.28.28.44.67.44,1.07v43.2Z"/>
    </g>
  </g>
</svg>