<?xml version="1.0" encoding="UTF-8"?>
<svg id="Layer_2" data-name="Layer 2" xmlns="http://www.w3.org/2000/svg" viewBox="0 0 292.65 292.65">
  <defs>
    <style>
      .cls-1 {
        fill: #fff;
        stroke: #fff;
        stroke-miterlimit: 10;
        stroke-width: 1px;
      }
    </style>
  </defs>
  <g id="Layer_1-2" data-name="Layer 1">
    <g id="_Radial_Repeat_" data-name="&amp;lt;Radial Repeat&amp;gt;">
      <path class="cls-1" d="M290.82,126.76h-79.92l71.34-29.36c.75-.3,1.12-1.17.81-1.92l-3.8-9.25c-.31-.75-1.18-1.11-1.93-.8l-72.07,29.65,57.09-57.09c.52-.51.52-1.36,0-1.88l-25.79-25.79c-.52-.52-1.36-.52-1.88,0l-56.51,56.51,29.69-71.21c.31-.75-.05-1.62-.8-1.93l-9.23-3.85c-.75-.31-1.62.05-1.93.8l-29.99,71.95V1.83c0-.74-.6-1.33-1.33-1.33h-36.46c-.74,0-1.33.6-1.33,1.33v79.92L97.4,10.42c-.3-.75-1.17-1.12-1.92-.81l-9.25,3.8c-.75.31-1.11,1.18-.8,1.93l29.65,72.07L57.99,30.32c-.51-.52-1.36-.52-1.88,0l-25.79,25.79c-.52.52-.52,1.36,0,1.88l56.51,56.51L15.63,84.81c-.75-.31-1.62.05-1.93.8l-3.85,9.23c-.31.75.05,1.62.8,1.93l71.94,29.99H1.83c-.74,0-1.33.59-1.33,1.33v36.46c0,.74.6,1.33,1.33,1.33h79.92s-71.34,29.36-71.34,29.36c-.75.31-1.12,1.17-.81,1.93l3.8,9.24c.31.75,1.18,1.11,1.93.8l72.07-29.65-57.09,57.09c-.52.51-.52,1.36,0,1.88l25.79,25.79c.52.52,1.36.52,1.88,0l56.51-56.51-29.69,71.21c-.31.75.05,1.62.8,1.93l9.23,3.85c.75.31,1.62-.05,1.93-.8l29.99-71.94v80.76c0,.74.59,1.33,1.33,1.33h36.46c.74,0,1.33-.6,1.33-1.33v-79.92s29.36,71.34,29.36,71.34c.31.75,1.17,1.12,1.93.81l9.24-3.8c.75-.31,1.11-1.18.8-1.93l-29.65-72.07,57.09,57.09c.51.52,1.36.52,1.88,0l25.79-25.79c.52-.52.52-1.36,0-1.88l-56.51-56.51,71.21,29.69c.75.31,1.62-.05,1.93-.8l3.85-9.23c.31-.75-.05-1.62-.8-1.93l-71.94-29.99h80.76c.74,0,1.33-.59,1.33-1.33v-36.46c0-.74-.6-1.33-1.33-1.33ZM198.49,167.32c0,.39-.16.76-.43,1.04l-1.01,1.01-3.61,3.61-20.64,20.64-3.42,3.42-1.01,1.01c-.28.28-.65.43-1.04.43h-42c-.39,0-.76-.16-1.04-.43l-1.01-1.01-3.61-3.61-20.64-20.64-4.43-4.43c-.28-.28-.43-.65-.43-1.04v-42c0-.39.16-.76.43-1.04l29.69-29.69c.28-.28.65-.43,1.04-.43h42c.39,0,.76.16,1.04.43l4.62,4.62,20.64,20.64,3.42,3.42,1.01,1.01c.28.28.43.65.43,1.04v42Z"/>
    </g>
  </g>
</svg>